<svg width="815" height="189" viewBox="0 0 815 189" fill="none" xmlns="http://www.w3.org/2000/svg">
<g clip-path="url(#clip0_111_66)">
<path d="M0.228516 72.3361L51.2357 52.2217L54.2719 60.1157L3.34056 80.2301L0.228516 72.3361Z" fill="#94ED68"/>
<path d="M15.5 47.1976L70.2984 47.8671L70.4021 39.3741L15.6038 38.7046L15.5 47.1976Z" fill="#94ED68"/>
<path d="M42.506 13.2832L92.9819 34.688L89.7181 42.5061L39.2422 21.1013L42.506 13.2832Z" fill="#94ED68"/>
<path d="M76.9653 0L115.752 38.9386L109.756 44.9349L71.0449 5.99639L76.9653 0Z" fill="#94ED68"/>
<path d="M113.855 0.683105L135.108 51.3867L127.366 54.7265L106.113 3.94696L113.855 0.683105Z" fill="#94ED68"/>
<path d="M140.526 16.0415L140.334 71.0712L148.79 71.1008L148.982 16.071L140.526 16.0415Z" fill="#94ED68"/>
<path d="M175.109 43.872L153.553 94.4239L145.811 91.0841L167.367 40.5322L175.109 43.872Z" fill="#94ED68"/>
<path d="M188.697 79.3192L149.075 117.423L143.23 111.275L182.852 73.1709L188.697 79.3192Z" fill="#94ED68"/>
<path d="M187.332 117.802L136.021 136.93L133.061 128.96L184.371 109.833L187.332 117.802Z" fill="#94ED68"/>
<path d="M171.398 142.804L116.623 141.083L116.355 149.573L171.131 151.294L171.398 142.804Z" fill="#94ED68"/>
<path d="M143.989 176.02L93.8926 153.705L97.3082 145.962L147.405 168.278L143.989 176.02Z" fill="#94ED68"/>
<path d="M109.301 188.696L71.2734 148.999L77.3458 143.154L115.374 182.776L109.301 188.696Z" fill="#94ED68"/>
<path d="M72.4125 187.33L52.0703 136.171L59.9643 133.059L80.2305 184.218L72.4125 187.33Z" fill="#94ED68"/>
<path d="M47.1879 171.999L47.5721 116.97L39.1166 116.911L38.7324 171.94L47.1879 171.999Z" fill="#94ED68"/>
<path d="M13.4336 145.128L34.4589 94.3481L42.201 97.5361L21.2517 148.392L13.4336 145.128Z" fill="#94ED68"/>
<path d="M0 110.591L38.559 71.4253L44.5554 77.4216L5.99639 116.588L0 110.591Z" fill="#94ED68"/>
</g>
<g clip-path="url(#clip1_111_66)">
<path d="M444.4 146.8C432.553 146.8 420.972 143.287 411.121 136.705C401.271 130.123 393.593 120.768 389.06 109.823C384.526 98.8775 383.34 86.8336 385.651 75.2141C387.962 63.5946 393.667 52.9215 402.044 44.5443C410.421 36.1672 421.095 30.4622 432.714 28.151C444.334 25.8397 456.377 27.026 467.323 31.5596C478.268 36.0933 487.623 43.7709 494.205 53.6214C500.787 63.4719 504.3 75.0529 504.3 86.9C504.274 102.778 497.954 117.999 486.726 129.227C475.499 140.454 460.278 146.774 444.4 146.8ZM444.4 55.9C438.241 55.8803 432.214 57.69 427.084 61.0997C421.955 64.5094 417.953 69.3654 415.587 75.0523C413.22 80.7391 412.596 87.0006 413.793 93.0427C414.99 99.0848 417.954 104.635 422.309 108.991C426.665 113.346 432.215 116.31 438.257 117.507C444.299 118.704 450.561 118.08 456.248 115.713C461.935 113.347 466.791 109.345 470.2 104.216C473.61 99.0861 475.42 93.0595 475.4 86.9C475.4 78.6783 472.134 70.7933 466.32 64.9797C460.507 59.1661 452.622 55.9 444.4 55.9Z" fill="white"/>
<path d="M343.8 144.9H314.9V86.5002C314.9 79.0741 311.95 71.9522 306.699 66.7011C301.448 61.4501 294.326 58.5002 286.9 58.5002H257.9V144.9H229V29.6001H286.9C301.991 29.6001 316.464 35.5949 327.134 46.2658C337.805 56.9366 343.8 71.4093 343.8 86.5002V144.9Z" fill="white"/>
<path d="M814.7 146.8H758.6C743.058 146.8 728.153 140.626 717.164 129.637C706.174 118.647 700 103.742 700 88.2002C700 72.6585 706.174 57.7533 717.164 46.7637C728.153 35.774 743.058 29.6001 758.6 29.6001H814.7V146.8ZM758.6 58.5002C754.548 58.2651 750.491 58.8603 746.677 60.2491C742.863 61.638 739.374 63.7913 736.422 66.5769C733.47 69.3625 731.118 72.7218 729.511 76.4486C727.904 80.1755 727.074 84.1914 727.074 88.2502C727.074 92.3089 727.904 96.3248 729.511 100.052C731.118 103.778 733.47 107.138 736.422 109.923C739.374 112.709 742.863 114.862 746.677 116.251C750.491 117.64 754.548 118.235 758.6 118H785.8V58.5002H758.6Z" fill="white"/>
<path d="M544.4 144.3H602.3C617.383 144.274 631.84 138.27 642.505 127.605C653.17 116.94 659.174 102.483 659.2 87.3999V29H630.3V87.3999C630.3 94.8352 627.353 101.968 622.105 107.234C616.857 112.501 609.735 115.474 602.3 115.5H573.3V29H544.4V144.3Z" fill="white"/>
<path d="M242.5 182.8L241.9 182.5H233.2L232.6 182.8L230.5 188.2L230.2 188.5H229.3L229 188.2V187.3L236.5 167.8L236.8 167.5H238.3L238.6 167.8L246.1 187.3V188.2L245.8 188.5H244.9L244.6 188.2L242.5 182.8ZM233.5 180.7L233.8 181H241.3L241.6 180.7L237.7 170.2H237.4L233.5 180.7Z" fill="white"/>
<path d="M295.2 178.9H290.1L289.8 179.2V188.2L289.5 188.5H288.3L288 188.2V167.8L288.3 167.5H297C301.5 167.5 303.6 169.3 303.6 173.2C303.6 177.1 300 178.9 297.9 178.9V179.2L303 187.3V188.2L302.7 188.5H302.1L301.5 188.2L295.8 179.2L295.2 178.9ZM297.3 169H290.1L289.8 169.3V177.1L290.1 177.4H297C300 177.4 301.8 176.5 301.8 173.2C301.8 169.9 300 169 297.3 169Z" fill="white"/>
<path d="M424.6 181C424.6 185.8 421.6 188.8 416.8 188.8C412 188.8 409 185.8 409 181V167.8L409.3 167.5H410.4L410.8 167.8V181C410.8 184.9 413.2 187.3 416.8 187.3C420.4 187.3 422.8 184.9 422.8 181V167.8L423.1 167.5H424.3L424.6 167.8V181Z" fill="white"/>
<path d="M467.9 188.5H466.7L466.4 188.2V167.8L466.7 167.5H467.9L468.2 167.8V188.2L467.9 188.5Z" fill="white"/>
<path d="M526 169H519.4L519.1 169.3V188.2L518.8 188.5H517.6L517.3 188.2V169.3L517 169H510.4L510.1 168.7V167.8L510.4 167.5H526L526.3 167.8V168.7L526 169Z" fill="white"/>
<path d="M581.399 188.5H568.499L568.199 188.2V167.8L568.499 167.5H581.399L581.699 167.8V168.7L581.399 169H570.299L569.999 169.3V176.8L570.299 177.1H580.799L581.099 177.4V178.3L580.799 178.6H570.299L569.999 178.9V186.7L570.299 187H581.399L581.699 187.3V188.2L581.399 188.5Z" fill="white"/>
<path d="M639.5 169H632.9L632.6 169.3V188.2L632.3 188.5H631.1L630.8 188.2V169.3L630.5 169H623.9L623.6 168.7V167.8L623.9 167.5H639.5L639.8 167.8V168.7L639.5 169Z" fill="white"/>
<path d="M697.2 181C697.2 185.8 694.2 188.8 689.4 188.8C684.6 188.8 681.6 185.8 681.6 181V167.8L681.9 167.5H683.1L683.4 167.8V181C683.4 184.9 685.8 187.3 689.4 187.3C693 187.3 695.4 184.9 695.4 181V167.8L695.7 167.5H696.9L697.2 167.8V181Z" fill="white"/>
<path d="M746.3 178.9H741.2L740.9 179.2V188.2L740.6 188.5H739.4L739.1 188.2V167.8L739.4 167.5H748.1C752.6 167.5 754.7 169.3 754.7 173.2C754.7 177.1 751.1 178.9 749 178.9V179.2L754.1 187.3V188.2L753.8 188.5H753.2L752.6 188.2L746.9 179.2L746.3 178.9ZM748.4 169H741.2L740.9 169.3V177.1L741.2 177.4H748.1C751.1 177.4 752.9 176.5 752.9 173.2C752.9 169.9 751.1 169 748.4 169Z" fill="white"/>
<path d="M811.1 182.8L810.5 182.5H801.8L801.2 182.8L799.1 188.2L798.8 188.5H797.9L797.6 188.2V187.3L805.1 167.8L805.4 167.5H806.9L807.2 167.8L814.7 187.3V188.2L814.4 188.5H813.5L813.2 188.2L811.1 182.8ZM802.1 180.7L802.4 181H809.9L810.2 180.7L806.3 170.2H806L802.1 180.7Z" fill="white"/>
<path d="M356.3 167.2C353.436 167.2 350.689 168.338 348.663 170.363C346.638 172.389 345.5 175.136 345.5 178C345.5 180.864 346.638 183.611 348.663 185.637C350.689 187.662 353.436 188.8 356.3 188.8C359.164 188.8 361.911 187.662 363.937 185.637C365.962 183.611 367.1 180.864 367.1 178C367.1 175.136 365.962 172.389 363.937 170.363C361.911 168.338 359.164 167.2 356.3 167.2ZM356.3 187.3C354.461 187.3 352.663 186.755 351.133 185.733C349.604 184.711 348.412 183.258 347.708 181.559C347.004 179.86 346.82 177.99 347.179 176.186C347.538 174.382 348.423 172.725 349.724 171.424C351.025 170.123 352.682 169.238 354.486 168.879C356.29 168.52 358.16 168.704 359.859 169.408C361.558 170.112 363.011 171.304 364.033 172.833C365.055 174.363 365.6 176.161 365.6 178C365.6 180.467 364.62 182.832 362.876 184.576C361.132 186.32 358.767 187.3 356.3 187.3Z" fill="white"/>
<path d="M363.8 186.1L362.3 184.6L359 181.3L358.4 181H354.2L353.9 181.3V182.2L354.2 182.5H357.5L358.1 182.8L360.1 184.8L363.2 187.9L364.1 188.8H365L365.3 188.5V187.6L364.5 186.8L363.8 186.1Z" fill="white"/>
</g>
<defs>
<clipPath id="clip0_111_66">
<rect width="189" height="189" fill="white"/>
</clipPath>
<clipPath id="clip1_111_66">
<rect width="586" height="162" fill="white" transform="translate(229 27)"/>
</clipPath>
</defs>
</svg>
