<svg width="586" height="162" viewBox="0 0 586 162" fill="none" xmlns="http://www.w3.org/2000/svg">
<path d="M215.4 119.8C203.553 119.8 191.972 116.287 182.121 109.705C172.271 103.123 164.593 93.7681 160.06 82.8228C155.526 71.8775 154.34 59.8336 156.651 48.2141C158.962 36.5946 164.667 25.9215 173.044 17.5443C181.421 9.16716 192.095 3.46224 203.714 1.15099C215.334 -1.16027 227.377 0.0259585 238.323 4.55965C249.268 9.09334 258.623 16.7709 265.205 26.6214C271.787 36.4719 275.3 48.0529 275.3 59.9C275.274 75.7784 268.954 90.9988 257.726 102.227C246.499 113.454 231.278 119.774 215.4 119.8ZM215.4 28.9C209.241 28.8803 203.214 30.69 198.084 34.0997C192.955 37.5094 188.953 42.3654 186.587 48.0523C184.22 53.7391 183.596 60.0006 184.793 66.0427C185.99 72.0848 188.954 77.6355 193.309 81.9909C197.665 86.3463 203.215 89.3103 209.257 90.5071C215.299 91.7039 221.561 91.0796 227.248 88.7134C232.935 86.3471 237.791 82.3455 241.2 77.2158C244.61 72.0861 246.42 66.0595 246.4 59.9C246.4 51.6783 243.134 43.7933 237.32 37.9797C231.507 32.1661 223.622 28.9 215.4 28.9V28.9Z" fill="black"/>
<path d="M114.8 117.9H85.9V59.5001C85.9 52.074 82.95 44.9521 77.699 39.701C72.448 34.45 65.3261 31.5001 57.9 31.5001H28.9V117.9H0V2.60004H57.9C72.9908 2.60004 87.4636 8.59487 98.1344 19.2657C108.805 29.9365 114.8 44.4092 114.8 59.5001V117.9Z" fill="black"/>
<path d="M585.7 119.8H529.6C514.058 119.8 499.153 113.626 488.164 102.637C477.174 91.6469 471 76.7418 471 61.2001C471 45.6584 477.174 30.7532 488.164 19.7636C499.153 8.77395 514.058 2.60004 529.6 2.60004H585.7V119.8ZM529.6 31.5001C525.548 31.265 521.491 31.8602 517.677 33.249C513.863 34.6379 510.374 36.7912 507.422 39.5768C504.47 42.3624 502.118 45.7217 500.511 49.4485C498.904 53.1754 498.074 57.1913 498.074 61.2501C498.074 65.3088 498.904 69.3247 500.511 73.0516C502.118 76.7784 504.47 80.1377 507.422 82.9233C510.374 85.709 513.863 87.8622 517.677 89.251C521.491 90.6399 525.548 91.2351 529.6 91.0001H556.8V31.5001H529.6Z" fill="black"/>
<path d="M315.4 117.3H373.3C388.383 117.274 402.84 111.27 413.505 100.605C424.17 89.9401 430.174 75.4827 430.2 60.4V2.00006H401.3V60.4C401.3 67.8353 398.353 74.9676 393.105 80.2345C387.857 85.5014 380.735 88.4736 373.3 88.5001H344.3V2.00006H315.4V117.3Z" fill="black"/>
<path d="M13.5 155.8L12.9 155.5H4.20001L3.60001 155.8L1.5 161.2L1.20001 161.5H0.300018L0 161.2V160.3L7.5 140.8L7.80002 140.5H9.30002L9.60001 140.8L17.1 160.3V161.2L16.8 161.5H15.9L15.6 161.2L13.5 155.8ZM4.5 153.7L4.80002 154H12.3L12.6 153.7L8.70001 143.2H8.40002L4.5 153.7Z" fill="black"/>
<path d="M66.2 151.9H61.1L60.8 152.2V161.2L60.5 161.5H59.3L59 161.2V140.8L59.3 140.5H68C72.5 140.5 74.6 142.3 74.6 146.2C74.6 150.1 71 151.9 68.9 151.9V152.2L74 160.3V161.2L73.7 161.5H73.1L72.5 161.2L66.8 152.2L66.2 151.9ZM68.3 142H61.1L60.8 142.3V150.1L61.1 150.4H68C71 150.4 72.8 149.5 72.8 146.2C72.8 142.9 71 142 68.3 142Z" fill="black"/>
<path d="M195.6 154C195.6 158.8 192.6 161.8 187.8 161.8C183 161.8 180 158.8 180 154V140.8L180.3 140.5H181.4L181.8 140.8V154C181.8 157.9 184.2 160.3 187.8 160.3C191.4 160.3 193.8 157.9 193.8 154V140.8L194.1 140.5H195.3L195.6 140.8V154Z" fill="black"/>
<path d="M238.9 161.5H237.7L237.4 161.2V140.8L237.7 140.5H238.9L239.2 140.8V161.2L238.9 161.5Z" fill="black"/>
<path d="M297 142H290.4L290.1 142.3V161.2L289.8 161.5H288.6L288.3 161.2V142.3L288 142H281.4L281.1 141.7V140.8L281.4 140.5H297L297.3 140.8V141.7L297 142Z" fill="black"/>
<path d="M352.4 161.5H339.5L339.2 161.2V140.8L339.5 140.5H352.4L352.7 140.8V141.7L352.4 142H341.3L341 142.3V149.8L341.3 150.1H351.8L352.1 150.4V151.3L351.8 151.6H341.3L341 151.9V159.7L341.3 160H352.4L352.7 160.3V161.2L352.4 161.5Z" fill="black"/>
<path d="M410.5 142H403.9L403.6 142.3V161.2L403.3 161.5H402.1L401.8 161.2V142.3L401.5 142H394.9L394.6 141.7V140.8L394.9 140.5H410.5L410.8 140.8V141.7L410.5 142Z" fill="black"/>
<path d="M468.2 154C468.2 158.8 465.2 161.8 460.4 161.8C455.6 161.8 452.6 158.8 452.6 154V140.8L452.9 140.5H454.1L454.4 140.8V154C454.4 157.9 456.8 160.3 460.4 160.3C464 160.3 466.4 157.9 466.4 154V140.8L466.7 140.5H467.9L468.2 140.8V154Z" fill="black"/>
<path d="M517.3 151.9H512.2L511.9 152.2V161.2L511.6 161.5H510.4L510.1 161.2V140.8L510.4 140.5H519.1C523.6 140.5 525.7 142.3 525.7 146.2C525.7 150.1 522.1 151.9 520 151.9V152.2L525.1 160.3V161.2L524.8 161.5H524.2L523.6 161.2L517.9 152.2L517.3 151.9ZM519.4 142H512.2L511.9 142.3V150.1L512.2 150.4H519.1C522.1 150.4 523.9 149.5 523.9 146.2C523.9 142.9 522.1 142 519.4 142Z" fill="black"/>
<path d="M582.1 155.8L581.5 155.5H572.8L572.2 155.8L570.1 161.2L569.8 161.5H568.9L568.6 161.2V160.3L576.1 140.8L576.4 140.5H577.9L578.2 140.8L585.7 160.3V161.2L585.4 161.5H584.5L584.2 161.2L582.1 155.8ZM573.1 153.7L573.4 154H580.9L581.2 153.7L577.3 143.2H577L573.1 153.7Z" fill="black"/>
<path d="M127.3 140.2C124.436 140.2 121.689 141.338 119.663 143.363C117.638 145.389 116.5 148.136 116.5 151C116.5 153.864 117.638 156.611 119.663 158.637C121.689 160.662 124.436 161.8 127.3 161.8C130.164 161.8 132.911 160.662 134.937 158.637C136.962 156.611 138.1 153.864 138.1 151C138.1 148.136 136.962 145.389 134.937 143.363C132.911 141.338 130.164 140.2 127.3 140.2V140.2ZM127.3 160.3C125.461 160.3 123.663 159.755 122.133 158.733C120.604 157.711 119.412 156.258 118.708 154.559C118.004 152.86 117.82 150.99 118.179 149.186C118.538 147.382 119.423 145.725 120.724 144.424C122.025 143.123 123.682 142.238 125.486 141.879C127.29 141.52 129.16 141.704 130.859 142.408C132.558 143.112 134.011 144.304 135.033 145.833C136.055 147.363 136.6 149.161 136.6 151C136.6 153.467 135.62 155.832 133.876 157.576C132.132 159.32 129.767 160.3 127.3 160.3Z" fill="black"/>
<path d="M134.8 159.1L133.3 157.6L130 154.3L129.4 154H125.2L124.9 154.3V155.2L125.2 155.5H128.5L129.1 155.8L131.1 157.8L134.2 160.9L135.1 161.8H136L136.3 161.5V160.6L135.5 159.8L134.8 159.1Z" fill="black"/>
</svg>
