<svg width="195" height="193" viewBox="0 0 195 193" fill="none" xmlns="http://www.w3.org/2000/svg">
<path d="M81.1381 23.5718L143.71 49.5819L153.864 124.242L119.291 163.576L41.0497 133.907L43.1503 56.2016L81.1381 23.5718Z" stroke="url(#paint0_linear)"/>
<path d="M97.0742 17.0708L161.281 60.6667L152.552 146.138L97.1972 175.488L21.3362 119.331L51.3637 31.2762L97.0742 17.0708Z" stroke="url(#paint1_linear)"/>
<path d="M82.707 89.099C84.324 89.099 85.556 88.186 85.556 86.371V81.52H84.401V86.305C84.401 87.515 83.796 88.054 82.707 88.054C81.618 88.054 81.024 87.515 81.024 86.305V81.52H79.858V86.371C79.858 88.186 81.079 89.099 82.707 89.099ZM88.4141 89H89.5801V86.349H90.8231C92.3851 86.349 93.5401 85.557 93.5401 83.929C93.5401 82.29 92.3851 81.52 90.8231 81.52H88.4141V89ZM89.5801 85.326V82.543H90.7791C91.7801 82.543 92.3521 82.972 92.3521 83.929C92.3521 84.875 91.7911 85.326 90.7791 85.326H89.5801ZM105.457 89.077H105.6V81.52H104.522V85.634C104.522 86.052 104.599 86.712 104.599 86.712C104.599 86.712 104.192 86.184 103.906 85.876L99.7808 81.443H99.6268V89H100.705V84.875C100.705 84.413 100.628 83.797 100.628 83.797C100.628 83.797 101.035 84.314 101.332 84.633L105.457 89.077ZM108.504 89H113.41V87.977H109.67V85.744H112.849V84.743H109.67V82.543H113.256V81.52H108.504V89ZM115.543 89H116.797L118.337 86.492C118.513 86.206 118.667 85.777 118.689 85.733C118.7 85.777 118.898 86.228 119.063 86.492L120.614 89H121.901L119.371 84.908L121.439 81.52H120.185L119.074 83.346C118.909 83.632 118.744 84.061 118.733 84.105C118.711 84.061 118.535 83.621 118.37 83.346L117.237 81.52H115.95L118.051 84.908L115.543 89ZM125.793 89H126.948V82.543H129.17V81.52H123.571V82.543H125.793V89Z" fill="#00FFFC"/>
<defs>
<linearGradient id="paint0_linear" x1="108.603" y1="30.4163" x2="75.7417" y2="152.395" gradientUnits="userSpaceOnUse">
<stop stop-color="#0076D4"/>
<stop offset="1" stop-color="#90EAFE"/>
</linearGradient>
<linearGradient id="paint1_linear" x1="129.26" y1="24.6467" x2="54.1118" y2="154.104" gradientUnits="userSpaceOnUse">
<stop stop-color="#0076D4"/>
<stop offset="1" stop-color="#90EAFE"/>
</linearGradient>
</defs>
</svg>
